<svg data-v-fde0c5aa="" xmlns="http://www.w3.org/2000/svg" viewBox="0 0 300 300" class="iconAbove"><!----><defs data-v-fde0c5aa=""><linearGradient data-v-fde0c5aa="" gradientTransform="rotate(25)" id="1b26e65d-a56a-47e2-b858-2a4ec82c5f11" x1="0%" y1="0%" x2="100%" y2="0%"><stop data-v-fde0c5aa="" offset="0%" stop-color="#006678" stop-opacity="1"></stop><stop data-v-fde0c5aa="" offset="100%" stop-color="#4FA8FF" stop-opacity="1"></stop></linearGradient></defs><rect data-v-fde0c5aa="" fill="url(#1b26e65d-a56a-47e2-b858-2a4ec82c5f11)" x="0" y="0" width="300px" height="300px" class="logo-background-square"></rect><defs data-v-fde0c5aa=""><!----></defs><g data-v-fde0c5aa="" id="066eb5e0-c615-4286-8668-1889c4b17856" fill="#ffffff" transform="matrix(2.6146419048309326,0,0,2.6146419048309326,17.51609019673845,136.97164123279475)"><path d="M7.04 15.85Q8.55 15.85 9.72 16.56Q10.88 17.28 11.52 18.54Q12.15 19.80 12.15 21.39L12.15 21.39Q12.15 23.03 11.19 24.42Q10.22 25.80 8.79 26.61Q7.35 27.41 6.05 27.41L6.05 27.41Q4.55 27.41 3.39 26.71Q2.23 26.00 1.59 24.74Q0.95 23.48 0.95 21.88L0.95 21.88Q0.95 20.24 1.92 18.85Q2.88 17.46 4.31 16.65Q5.74 15.85 7.04 15.85L7.04 15.85ZM6.23 17.11Q5.33 17.11 4.60 17.64Q3.86 18.17 3.44 19.11Q3.01 20.05 3.01 21.21L3.01 21.21Q3.01 22.57 3.43 23.69Q3.85 24.81 4.72 25.48Q5.59 26.15 6.86 26.15L6.86 26.15Q7.76 26.15 8.49 25.62Q9.23 25.09 9.65 24.15Q10.08 23.21 10.08 22.05L10.08 22.05Q10.08 20.68 9.66 19.56Q9.24 18.44 8.37 17.77Q7.50 17.11 6.23 17.11L6.23 17.11ZM18.23 27.29Q17.51 27.29 16.90 26.87L16.90 26.87L16.90 29.48L18.89 30.07L18.58 30.70L13.83 30.70L13.83 30.20L15.08 29.20L15.08 21.84L13.83 21.10L13.83 20.59L16.32 19.40L16.81 21.20L18.76 19.64Q19.21 19.53 19.78 19.53L19.78 19.53Q20.55 19.53 21.18 20.01Q21.81 20.50 22.16 21.33Q22.51 22.16 22.51 23.16L22.51 23.16Q22.51 24.25 21.85 25.19Q21.18 26.14 20.17 26.71Q19.17 27.27 18.23 27.27L18.23 27.27L18.23 27.29ZM19.03 21Q18.51 21 18.02 21.19Q17.54 21.38 16.90 21.92L16.90 21.92L16.90 24.28Q16.90 25.02 17.45 25.52Q18.00 26.03 19.04 26.03L19.04 26.03Q19.80 26.03 20.17 25.47Q20.55 24.92 20.55 23.84L20.55 23.84Q20.55 22.64 20.15 21.82Q19.75 21 19.03 21L19.03 21ZM31.56 25.23L29.15 27.15Q28.55 27.27 27.69 27.27L27.69 27.27Q26.75 27.27 26.00 26.79Q25.26 26.31 24.83 25.48Q24.40 24.65 24.40 23.65L24.40 23.65Q24.40 22.55 25.07 21.61Q25.73 20.66 26.74 20.10Q27.75 19.53 28.69 19.53L28.69 19.53Q30.04 19.53 30.79 20.59Q31.54 21.66 31.53 23.44L31.53 23.44L26.38 23.44Q26.47 24.56 27.02 25.26Q27.57 25.97 28.50 25.97L28.50 25.97Q29.43 25.97 31.14 24.65L31.14 24.65L31.56 25.23ZM27.89 20.80Q26.45 20.80 26.38 22.79L26.38 22.79L29.53 22.79Q29.40 22.08 29.27 21.69Q29.13 21.29 28.81 21.05Q28.49 20.80 27.87 20.80L27.87 20.80L27.89 20.80ZM42.34 26.52L42.01 27.15L39.26 27.15L39.26 22.47Q39.26 21.73 39.02 21.43Q38.78 21.13 38.19 21.13L38.19 21.13Q37.76 21.13 37.32 21.28Q36.89 21.43 36.32 21.87L36.32 21.87L36.32 26.05L37.58 26.52L37.25 27.15L33.25 27.15L33.25 26.64L34.50 25.65L34.50 21.84L33.25 21.10L33.25 20.59L35.74 19.40L36.23 21.18L38.16 19.64Q38.49 19.53 38.95 19.53L38.95 19.53Q39.93 19.53 40.50 20.11Q41.08 20.69 41.08 21.69L41.08 21.69L41.08 26.04L42.34 26.52ZM53.52 15.85Q54.28 15.85 55.27 16.06Q56.27 16.27 56.73 16.51L56.73 16.51L56.73 19.28L56.03 19.28Q54.78 17.11 52.71 17.11L52.71 17.11Q51.81 17.11 51.08 17.64Q50.34 18.17 49.92 19.11Q49.49 20.05 49.49 21.21L49.49 21.21Q49.49 22.55 49.90 23.66Q50.32 24.77 51.17 25.43Q52.02 26.10 53.28 26.10L53.28 26.10Q54.50 26.10 56.74 24.39L56.74 24.39L57.19 25.10L54.61 27.10Q54.08 27.29 53.58 27.35Q53.07 27.41 52.50 27.41L52.50 27.41Q51.02 27.41 49.86 26.70Q48.71 25.98 48.07 24.73Q47.43 23.48 47.43 21.88L47.43 21.88Q47.43 20.24 48.40 18.85Q49.36 17.46 50.79 16.65Q52.22 15.85 53.52 15.85L53.52 15.85ZM63.24 19.53Q64.19 19.53 64.94 20.01Q65.69 20.50 66.11 21.32Q66.53 22.15 66.53 23.16L66.53 23.16Q66.53 24.25 65.86 25.19Q65.20 26.14 64.19 26.71Q63.18 27.27 62.24 27.27L62.24 27.27Q61.31 27.27 60.56 26.79Q59.81 26.31 59.38 25.48Q58.95 24.65 58.95 23.65L58.95 23.65Q58.95 22.55 59.62 21.61Q60.28 20.66 61.29 20.10Q62.30 19.53 63.24 19.53L63.24 19.53ZM62.43 20.80Q60.91 20.80 60.91 22.97L60.91 22.97Q60.91 24.28 61.47 25.14Q62.02 26.01 63.06 26.01L63.06 26.01Q63.80 26.01 64.18 25.45Q64.55 24.89 64.55 23.81L64.55 23.81Q64.55 22.53 64.00 21.66Q63.45 20.80 62.43 20.80L62.43 20.80ZM76.62 26.50L76.30 27.13L73.54 27.13L73.54 25.72L71.81 27.16Q71.54 27.27 71.02 27.27L71.02 27.27Q70.04 27.27 69.47 26.69Q68.89 26.11 68.89 25.12L68.89 25.12L68.89 21.84L67.65 21.11L67.65 20.61L70.11 19.43L70.71 19.43L70.71 24.35Q70.71 25.10 70.95 25.40Q71.19 25.70 71.78 25.70L71.78 25.70Q72.18 25.70 72.59 25.55Q73.00 25.40 73.54 24.96L73.54 24.96L73.54 21.84L72.30 21.11L72.30 20.61L74.76 19.43L75.36 19.43L75.36 26.04L76.62 26.50ZM82.21 21.11Q81.91 21.11 81.59 21.27Q81.27 21.42 80.86 21.83L80.86 21.83L80.86 25.93L82.85 26.52L82.54 27.15L77.80 27.15L77.80 26.64L79.04 25.65L79.04 21.84L77.80 21.10L77.80 20.59L80.29 19.40L80.75 21.10L82.17 19.64Q82.49 19.53 82.92 19.53L82.92 19.53Q83.44 19.53 83.83 19.80Q84.21 20.06 84.41 20.55L84.41 20.55L83.40 21.81L82.80 21.81Q82.74 21.43 82.60 21.27Q82.46 21.11 82.21 21.11L82.21 21.11ZM89.61 25.56Q89.61 25.20 89.19 24.89Q88.77 24.57 87.91 24.11L87.91 24.11Q87.16 23.72 86.72 23.44Q86.28 23.16 85.97 22.79Q85.65 22.41 85.65 21.97L85.65 21.97Q85.65 21.46 86.09 20.89Q86.52 20.31 87.16 19.92Q87.79 19.53 88.33 19.53L88.33 19.53Q88.98 19.53 89.85 19.69Q90.72 19.85 91.11 20.05L91.11 20.05L91.11 22.25L90.51 22.25Q90.08 21.42 89.50 20.95Q88.93 20.48 88.31 20.48L88.31 20.48Q87.91 20.48 87.66 20.70Q87.42 20.92 87.42 21.24L87.42 21.24Q87.42 21.64 87.85 21.97Q88.28 22.29 89.19 22.78L89.19 22.78Q89.91 23.14 90.34 23.42Q90.78 23.69 91.08 24.05Q91.39 24.40 91.39 24.84L91.39 24.84Q91.39 25.35 90.94 25.92Q90.48 26.49 89.83 26.88Q89.18 27.27 88.63 27.27L88.63 27.27Q87.93 27.27 86.96 27.10Q85.99 26.94 85.58 26.75L85.58 26.75L85.58 24.54L86.18 24.54Q86.66 25.38 87.32 25.85Q87.98 26.32 88.65 26.32L88.65 26.32Q89.08 26.32 89.35 26.10Q89.61 25.87 89.61 25.56L89.61 25.56ZM100.39 25.23L97.99 27.15Q97.38 27.27 96.53 27.27L96.53 27.27Q95.59 27.27 94.84 26.79Q94.09 26.31 93.67 25.48Q93.24 24.65 93.24 23.65L93.24 23.65Q93.24 22.55 93.91 21.61Q94.57 20.66 95.58 20.10Q96.59 19.53 97.52 19.53L97.52 19.53Q98.88 19.53 99.63 20.59Q100.38 21.66 100.37 23.44L100.37 23.44L95.21 23.44Q95.31 24.56 95.86 25.26Q96.40 25.97 97.34 25.97L97.34 25.97Q98.27 25.97 99.97 24.65L99.97 24.65L100.39 25.23ZM96.73 20.80Q95.28 20.80 95.21 22.79L95.21 22.79L98.36 22.79Q98.24 22.08 98.11 21.69Q97.97 21.29 97.65 21.05Q97.33 20.80 96.71 20.80L96.71 20.80L96.73 20.80Z"></path></g><defs data-v-fde0c5aa=""><!----></defs><g data-v-fde0c5aa="" id="0359a449-18ce-4889-8af1-bf9cb7b34a61" stroke="none" fill="#ffffff" transform="matrix(2.4267146587371826,0,0,2.4267146587371826,111.17256632754837,82.75884949132255)"><path d="M16 32c8.837 0 16-7.163 16-16S24.837 0 16 0 0 7.163 0 16s7.163 16 16 16zM14.817 6.421h2v8.886h8.887v2H14.817V6.421zm-5.959.437h2v14.283h14.283v2H8.858V6.858z"></path></g><!----></svg>